# Made in Blockbench 4.12.4
mtllib Demijohn.mtl

o Handle Left
v 0.03125 0.8125 0.15625
v 0.03125 0.75 0.15625
v 0.03125 0.75 0.03125
v -0.03125 0.8125 0.15625
v -0.03125 0.75 0.15625
v -0.03125 0.75 0.03125
v 0.03125 0.75 0.15625
v 0.03125 0.75 0.09375
v 0.03125 0.6875 0.15625
v 0.03125 0.6875 0.09375
v -0.03125 0.75 0.15625
v -0.03125 0.75 0.09375
v -0.03125 0.6875 0.15625
v -0.03125 0.6875 0.09375
v 0.03125 0.8125 -0.15625
v 0.03125 0.75 -0.03125
v 0.03125 0.75 -0.15625
v -0.03125 0.8125 -0.15625
v -0.03125 0.75 -0.03125
v -0.03125 0.75 -0.15625
v 0.03125 0.75 -0.15625
v 0.03125 0.6875 -0.09375
v 0.03125 0.6875 -0.15625
v -0.03125 0.75 -0.15625
v -0.03125 0.6875 -0.09375
v -0.03125 0.6875 -0.15625
v 0.0625 0.8125 0.0625
v 0.0625 0.8125 -0.0625
v 0.0625 0.6875 0.0625
v 0.0625 0.6875 -0.0625
v -0.0625 0.8125 0.0625
v -0.0625 0.8125 -0.0625
v -0.0625 0.6875 0.0625
v -0.0625 0.6875 -0.0625
v 0.09375 0.875 0.09375
v 0.09375 0.875 -0.09375
v 0.09375 0.8125 0.09375
v 0.09375 0.8125 -0.09375
v -0.09375 0.875 0.09375
v -0.09375 0.875 -0.09375
v -0.09375 0.8125 0.09375
v -0.09375 0.8125 -0.09375
v -0.03125 0.875 0.03125
v -0.03125 0.875 -0.03125
v 0.03125 0.875 -0.03125
v 0.03125 0.875 0.03125
v 0.03125 0.8125 0.03125
v -0.03125 0.8125 0.03125
v 0.03125 0.8125 -0.03125
v -0.03125 0.8125 -0.03125
v -0.03125 0.8125 -0.03125
v -0.03125 0.8125 0.03125
v 0.03125 0.8125 -0.03125
v 0.03125 0.8125 0.03125
v 0.1875 0.6875 0.1875
v 0.1875 0.625 0.1875
v -0.1875 0.6875 -0.1875
v -0.1875 0.625 -0.1875
v 0.21875 0.625 0.21875
v 0.21875 0.625 -0.21875
v 0.21875 0 0.21875
v 0.21875 0 -0.21875
v -0.21875 0.625 0.21875
v -0.21875 0.625 -0.21875
v -0.21875 0 0.21875
v -0.21875 0 -0.21875
v -0.215625 0.53125 0.19375
v -0.215625 0.53125 -0.18125000000000002
v -0.215625 0.03125 0.19375
v -0.215625 0.03125 -0.18125000000000002
v -0.246875 0.53125 0.19375
v -0.246875 0.53125 -0.18125000000000002
v -0.246875 0.03125 0.19375
v -0.246875 0.03125 -0.18125000000000002
v 0.1875 0.53125 0.253125
v 0.1875 0.53125 -0.253125
v 0.1875 0.03125 0.253125
v 0.1875 0.03125 -0.253125
v -0.1875 0.53125 0.253125
v -0.1875 0.53125 -0.253125
v -0.1875 0.03125 0.253125
v -0.1875 0.03125 -0.253125
v 0.253125 0.53125 0.1875
v 0.253125 0.53125 -0.1875
v 0.253125 0.03125 0.1875
v 0.253125 0.03125 -0.1875
v 0.221875 0.53125 0.1875
v 0.221875 0.53125 -0.1875
v 0.221875 0.03125 0.1875
v 0.221875 0.03125 -0.1875
v 0.1875 0.53125 -0.221875
v 0.1875 0.53125 0.221875
v -0.1875 0.53125 0.221875
v -0.1875 0.53125 -0.221875
v -0.1875 0.03125 -0.221875
v -0.1875 0.03125 0.221875
v 0.1875 0.03125 -0.221875
v 0.1875 0.03125 0.221875
v -0.1875 0.53125 0.221875
v 0.1875 0.53125 0.221875
v 0.1875 0.03125 0.221875
v -0.1875 0.03125 0.221875
v 0.1875 0.6875 -0.1875
v 0.1875 0.625 -0.1875
v -0.1875 0.6875 0.1875
v -0.1875 0.625 0.1875
v 0.03125 0.75 -0.09375
v -0.03125 0.75 -0.09375
vt 0.21875 0.75
vt 0.21875 0.765625
vt 0.1875 0.765625
vt 0.1875 0.75
vt 0.1875 0.765625
vt 0.1875 0.78125
vt 0.15625 0.78125
vt 0.15625 0.765625
vt 0.171875 0.75
vt 0.171875 0.78125
vt 0.15625 0.78125
vt 0.15625 0.75
vt 0.15625 0.75
vt 0.15625 0.765625
vt 0.140625 0.765625
vt 0.140625 0.75
vt 0.265625 0.875
vt 0.265625 0.890625
vt 0.25 0.890625
vt 0.25 0.875
vt 0.203125 0.75
vt 0.203125 0.765625
vt 0.1875 0.765625
vt 0.1875 0.75
vt 0.1875 0.75
vt 0.1875 0.765625
vt 0.171875 0.765625
vt 0.171875 0.75
vt 0.1875 0.734375
vt 0.1875 0.75
vt 0.171875 0.75
vt 0.171875 0.734375
vt 0.21875 0.75
vt 0.21875 0.765625
vt 0.203125 0.765625
vt 0.203125 0.75
vt 0.15625 0.75
vt 0.15625 0.765625
vt 0.140625 0.765625
vt 0.140625 0.75
vt 0.171875 0.75
vt 0.171875 0.765625
vt 0.15625 0.765625
vt 0.15625 0.75
vt 0.1875 0.75
vt 0.1875 0.765625
vt 0.15625 0.765625
vt 0.15625 0.75
vt 0.15625 0.765625
vt 0.15625 0.78125
vt 0.125 0.78125
vt 0.125 0.765625
vt 0.21875 0.734375
vt 0.21875 0.765625
vt 0.203125 0.765625
vt 0.203125 0.734375
vt 0.203125 0.734375
vt 0.203125 0.765625
vt 0.1875 0.765625
vt 0.1875 0.734375
vt 0.140625 0.765625
vt 0.140625 0.78125
vt 0.125 0.78125
vt 0.125 0.765625
vt 0.15625 0.765625
vt 0.15625 0.78125
vt 0.140625 0.78125
vt 0.140625 0.765625
vt 0.171875 0.765625
vt 0.171875 0.78125
vt 0.15625 0.78125
vt 0.15625 0.765625
vt 0.1875 0.765625
vt 0.1875 0.78125
vt 0.171875 0.78125
vt 0.171875 0.765625
vt 0.203125 0.765625
vt 0.203125 0.78125
vt 0.1875 0.78125
vt 0.1875 0.765625
vt 0.21875 0.765625
vt 0.21875 0.78125
vt 0.203125 0.78125
vt 0.203125 0.765625
vt 0.1875 0.75
vt 0.1875 0.765625
vt 0.171875 0.765625
vt 0.171875 0.75
vt 0.203125 0.75
vt 0.203125 0.765625
vt 0.1875 0.765625
vt 0.1875 0.75
vt 0.140625 0.6875
vt 0.140625 0.71875
vt 0.109375 0.71875
vt 0.109375 0.6875
vt 0.140625 0.6875
vt 0.140625 0.71875
vt 0.109375 0.71875
vt 0.109375 0.6875
vt 0.25 0.875
vt 0.25 0.90625
vt 0.21875 0.90625
vt 0.21875 0.875
vt 0.171875 0.6875
vt 0.171875 0.71875
vt 0.140625 0.71875
vt 0.140625 0.6875
vt 0.140625 0.71875
vt 0.140625 0.75
vt 0.109375 0.75
vt 0.109375 0.71875
vt 0.171875 0.6875
vt 0.171875 0.71875
vt 0.140625 0.71875
vt 0.140625 0.6875
vt 0.265625 0.953125
vt 0.265625 1
vt 0.21875 1
vt 0.21875 0.953125
vt 0.21875 0.75
vt 0.21875 0.765625
vt 0.171875 0.765625
vt 0.171875 0.75
vt 0.171875 0.75
vt 0.171875 0.765625
vt 0.125 0.765625
vt 0.125 0.75
vt 0.203125 0.75
vt 0.203125 0.765625
vt 0.15625 0.765625
vt 0.15625 0.75
vt 0.1875 0.765625
vt 0.1875 0.78125
vt 0.140625 0.78125
vt 0.140625 0.765625
vt 0.015625 0.890625
vt 0.015625 0.921875
vt 0 0.921875
vt 0 0.890625
vt 0.140625 0.765625
vt 0.125 0.765625
vt 0.125 0.75
vt 0.140625 0.75
vt 0.125 0.75
vt 0.140625 0.75
vt 0.140625 0.765625
vt 0.125 0.765625
vt 0.125 0.75
vt 0.140625 0.75
vt 0.140625 0.765625
vt 0.125 0.765625
vt 0.125 0.75
vt 0.140625 0.75
vt 0.140625 0.765625
vt 0.125 0.765625
vt 0.125 0.75
vt 0.140625 0.75
vt 0.140625 0.765625
vt 0.125 0.765625
vt 0.21875 0.765625
vt 0.21875 0.78125
vt 0.125 0.78125
vt 0.125 0.765625
vt 0.21875 0.75
vt 0.21875 0.765625
vt 0.125 0.765625
vt 0.125 0.75
vt 0.109375 0.84375
vt 0.109375 1
vt 0 1
vt 0 0.84375
vt 0.109375 0.84375
vt 0.109375 1
vt 0 1
vt 0 0.84375
vt 0.1015625 0.6328125
vt 0.1015625 0.7265625
vt 0.0078125 0.7265625
vt 0.0078125 0.6328125
vt 0.109375 0.734375
vt 0.109375 0.84375
vt 0 0.84375
vt 0 0.734375
vt 0.109375 0.84375
vt 0.109375 1
vt 0 1
vt 0 0.84375
vt 0.109375 0.84375
vt 0.109375 1
vt 0 1
vt 0 0.84375
vt 0.359375 0.65625
vt 0.359375 0.78125
vt 0.265625 0.78125
vt 0.265625 0.65625
vt 0.21875 0.875
vt 0.21875 1
vt 0.125 1
vt 0.125 0.875
vt 0.125 0.90625
vt 0.125 1
vt 0.109375 1
vt 0.109375 0.90625
vt 0.10937500000000003 0.859375
vt 0.015624999999999995 0.859375
vt 0.015624999999999995 0.84375
vt 0.10937500000000003 0.84375
vt 0.125 0.75
vt 0.125 0.875
vt 0.109375 0.875
vt 0.109375 0.75
vt 0.125 0.875
vt 0.125 1
vt 0.109375 1
vt 0.109375 0.875
vt 0.21875 0.875
vt 0.21875 1
vt 0.125 1
vt 0.125 0.875
vt 0.21875 0.875
vt 0.21875 1
vt 0.125 1
vt 0.125 0.875
vt 0.21875 0.875
vt 0.21875 1
vt 0.125 1
vt 0.125 0.875
vt 0.359375 0.78125
vt 0.359375 0.90625
vt 0.265625 0.90625
vt 0.265625 0.78125
vt 0 0.984375
vt 0.09375 0.984375
vt 0.09375 1
vt 0 1
vt 0.015624999999999995 0.84375
vt 0.10937500000000003 0.84375
vt 0.10937500000000003 0.859375
vt 0.015624999999999995 0.859375
vt 0.125 0.875
vt 0.125 1
vt 0.109375 1
vt 0.109375 0.875
vt 0.125 0.75
vt 0.125 0.875
vt 0.109375 0.875
vt 0.109375 0.75
vt 0.109375 0.984375
vt 0.109375 1
vt 0.015625 1
vt 0.015625 0.984375
vt 0.015625 0.984375
vt 0.109375 0.984375
vt 0.109375 1
vt 0.015625 1
vt 0.109375 0.875
vt 0.125 0.875
vt 0.125 1
vt 0.109375 1
vt 0.125 0.875
vt 0.109375 0.875
vt 0.109375 0.75
vt 0.125 0.75
vt 0.125 0.875
vt 0.125 1
vt 0.109375 1
vt 0.109375 0.875
vt 0.125 0.875
vt 0.109375 0.875
vt 0.109375 0.75
vt 0.125 0.75
vt 0.109375 0.859375
vt 0.015625 0.859375
vt 0.015625 0.84375
vt 0.109375 0.84375
vt 0.015624999999999995 0.84375
vt 0.10937500000000003 0.84375
vt 0.10937500000000003 0.859375
vt 0.015624999999999995 0.859375
vt 0.21875 0.78125
vt 0.21875 0.875
vt 0.125 0.875
vt 0.125 0.78125
vt 0.359375 0.90625
vt 0.359375 1
vt 0.265625 1
vt 0.265625 0.90625
vt 0.21875 0.765625
vt 0.21875 0.78125
vt 0.125 0.78125
vt 0.125 0.765625
vt 0.21875 0.75
vt 0.21875 0.765625
vt 0.125 0.765625
vt 0.125 0.75
vt 0.265625 0.953125
vt 0.21875 0.953125
vt 0.234375 0.9375
vt 0.25 0.9375
vt 0.234375 0.9375
vt 0.21875 0.953125
vt 0.21875 0.90625
vt 0.234375 0.921875
vt 0.265625 0.90625
vt 0.265625 0.953125
vt 0.25 0.9375
vt 0.25 0.921875
vt 0.234375 0.921875
vt 0.21875 0.90625
vt 0.265625 0.90625
vt 0.25 0.921875
vn 1 0 0
vn -1 0 0
vn 0 -1 0
vn 0 0 1
vn 0 0 -1
vn 1 0 0
vn -1 0 0
vn 0 1 0
vn 0 -1 0
vn 0 0 1
vn 0 0 -1
vn 1 0 0
vn -1 0 0
vn 0 1 0
vn 0 -1 0
vn 0 0 1
vn 0 0 -1
vn 1 0 0
vn -1 0 0
vn 0 1 0
vn 0 -1 0
vn 0 0 1
vn 0 0 -1
vn 1 0 0
vn -1 0 0
vn 0 1 0
vn 0 -1 0
vn 0 0 1
vn 0 0 -1
vn 0 -1 0
vn 0 0 1
vn 0 0 -1
vn 1 0 0
vn -1 0 0
vn 0 1 0
vn 0 1 0
vn 0 0 1
vn 1 0 0
vn 0 0 -1
vn -1 0 0
vn 1 0 0
vn -1 0 0
vn 1 0 0
vn -1 0 0
vn 0 1 0
vn 0 -1 0
vn 0 0 1
vn 0 0 -1
vn 1 0 0
vn -1 0 0
vn 0 1 0
vn 0 -1 0
vn 0 0 1
vn 0 0 -1
vn 0 0 1
vn 0 0 -1
vn 1 0 0
vn -1 0 0
vn 0 1 0
vn 0 -1 0
vn 0 0 1
vn 0 0 -1
vn 0 1 0
vn 0 1 0
vn -1 0 0
vn -1 0 0
vn 1 0 0
vn 1 0 0
vn 0 -1 0
vn 0 -1 0
vn 0 1 0
vn 0 -1 0
vn 0 0 1
vn 0 0 -1
vn 0 1 0
vn 0 1 0
vn 0 1 0
vn 0 1 0
usemtl m_690ce169-33e9-aec7-6890-9cce521ac44a
f 3/1/1 47/2/1 1/3/1 2/4/1
f 5/5/2 4/6/2 48/7/2 6/8/2
f 3/9/3 2/10/3 5/11/3 6/12/3
f 2/13/4 1/14/4 4/15/4 5/16/4
f 6/17/5 48/18/5 47/19/5 3/20/5
f 10/21/6 8/22/6 7/23/6 9/24/6
f 13/25/7 11/26/7 12/27/7 14/28/7
f 7/29/8 8/30/8 12/31/8 11/32/8
f 10/33/9 9/34/9 13/35/9 14/36/9
f 9/37/10 7/38/10 11/39/10 13/40/10
f 14/41/11 12/42/11 8/43/11 10/44/11
f 17/45/12 15/46/12 49/47/12 16/48/12
f 19/49/13 50/50/13 18/51/13 20/52/13
f 49/53/14 15/54/14 18/55/14 50/56/14
f 17/57/15 16/58/15 19/59/15 20/60/15
f 16/61/16 49/62/16 50/63/16 19/64/16
f 20/65/17 18/66/17 15/67/17 17/68/17
f 23/69/18 21/70/18 107/71/18 22/72/18
f 25/73/19 108/74/19 24/75/19 26/76/19
f 107/77/20 21/78/20 24/79/20 108/80/20
f 23/81/21 22/82/21 25/83/21 26/84/21
f 22/85/22 107/86/22 108/87/22 25/88/22
f 26/89/23 24/90/23 21/91/23 23/92/23
f 30/93/24 28/94/24 27/95/24 29/96/24
f 33/97/25 31/98/25 32/99/25 34/100/25
f 27/101/26 28/102/26 32/103/26 31/104/26
f 30/105/27 29/106/27 33/107/27 34/108/27
f 29/109/28 27/110/28 31/111/28 33/112/28
f 34/113/29 32/114/29 28/115/29 30/116/29
f 38/117/30 37/118/30 41/119/30 42/120/30
f 37/121/31 35/122/31 39/123/31 41/124/31
f 42/125/32 40/126/32 36/127/32 38/128/32
f 38/129/33 36/130/33 35/131/33 37/132/33
f 41/133/34 39/134/34 40/135/34 42/136/34
f 1/137/35 47/138/35 48/139/35 4/140/35
f 53/141/36 51/142/36 52/143/36 54/144/36
f 51/145/37 53/146/37 45/147/37 44/148/37
f 52/149/38 51/150/38 44/151/38 43/152/38
f 54/153/39 52/154/39 43/155/39 46/156/39
f 53/157/40 54/158/40 46/159/40 45/160/40
f 104/161/41 103/162/41 55/163/41 56/164/41
f 106/165/42 105/166/42 57/167/42 58/168/42
f 62/169/43 60/170/43 59/171/43 61/172/43
f 65/173/44 63/174/44 64/175/44 66/176/44
f 59/177/45 60/178/45 64/179/45 63/180/45
f 62/181/46 61/182/46 65/183/46 66/184/46
f 61/185/47 59/186/47 63/187/47 65/188/47
f 66/189/48 64/190/48 60/191/48 62/192/48
f 70/193/49 68/194/49 67/195/49 69/196/49
f 73/197/50 71/198/50 72/199/50 74/200/50
f 67/201/51 68/202/51 72/203/51 71/204/51
f 70/205/52 69/206/52 73/207/52 74/208/52
f 69/209/53 67/210/53 71/211/53 73/212/53
f 74/213/54 72/214/54 68/215/54 70/216/54
f 77/217/55 75/218/55 79/219/55 81/220/55
f 82/221/56 80/222/56 76/223/56 78/224/56
f 86/225/57 84/226/57 83/227/57 85/228/57
f 89/229/58 87/230/58 88/231/58 90/232/58
f 83/233/59 84/234/59 88/235/59 87/236/59
f 86/237/60 85/238/60 89/239/60 90/240/60
f 85/241/61 83/242/61 87/243/61 89/244/61
f 90/245/62 88/246/62 84/247/62 86/248/62
f 91/249/63 76/250/63 80/251/63 94/252/63
f 79/253/64 75/254/64 92/255/64 93/256/64
f 96/257/65 81/258/65 79/259/65 99/260/65
f 94/261/66 80/262/66 82/263/66 95/264/66
f 78/265/67 76/266/67 91/267/67 97/268/67
f 100/269/68 75/270/68 77/271/68 101/272/68
f 77/273/69 81/274/69 102/275/69 98/276/69
f 82/277/70 78/278/70 97/279/70 95/280/70
f 55/281/71 103/282/71 57/283/71 105/284/71
f 104/285/72 56/286/72 106/287/72 58/288/72
f 56/289/73 55/290/73 105/291/73 106/292/73
f 58/293/74 57/294/74 103/295/74 104/296/74
f 36/297/75 40/298/75 44/299/75 45/300/75
f 44/301/76 40/302/76 39/303/76 43/304/76
f 35/305/77 36/306/77 45/307/77 46/308/77
f 43/309/78 39/310/78 35/311/78 46/312/78
o cube
v 0.21875 0.5 0.21875
v 0.21875 0.5 -0.21875
v 0.21875 0 0.21875
v 0.21875 0 -0.21875
v -0.21875 0.5 0.21875
v -0.21875 0.5 -0.21875
v -0.21875 0 0.21875
v -0.21875 0 -0.21875
vt 0.21875 0.75
vt 0.21875 1
vt 0 1
vt 0 0.75
vt 0.46875 0.75
vt 0.46875 1
vt 0.25 1
vt 0.25 0.75
vt 0.71875 0.78125
vt 0.71875 1
vt 0.5 1
vt 0.5 0.78125
vt 0.71875 0.53125
vt 0.71875 0.75
vt 0.5 0.75
vt 0.5 0.53125
vt 0.21875 0.46875
vt 0.21875 0.71875
vt 0 0.71875
vt 0 0.46875
vt 0.46875 0.46875
vt 0.46875 0.71875
vt 0.25 0.71875
vt 0.25 0.46875
vn 1 0 0
vn -1 0 0
vn 0 1 0
vn 0 -1 0
vn 0 0 1
vn 0 0 -1
usemtl m_f2e2af7d-8d4d-382f-eb3d-b8ba29eb7ca4
f 112/313/79 110/314/79 109/315/79 111/316/79
f 115/317/80 113/318/80 114/319/80 116/320/80
f 109/321/81 110/322/81 114/323/81 113/324/81
f 112/325/82 111/326/82 115/327/82 116/328/82
f 111/329/83 109/330/83 113/331/83 115/332/83
f 116/333/84 114/334/84 110/335/84 112/336/84